<?xml version="1.0" standalone="no"?>
<!DOCTYPE svg PUBLIC "-//W3C//DTD SVG 20010904//EN"
 "http://www.w3.org/TR/2001/REC-SVG-20010904/DTD/svg10.dtd">
<svg version="1.0" xmlns="http://www.w3.org/2000/svg"
 width="104.000000pt" height="104.000000pt" viewBox="0 0 104.000000 104.000000"
 preserveAspectRatio="xMidYMid meet">
<metadata>
Created by potrace 1.14, written by Peter Selinger 2001-2017
</metadata>
<g transform="translate(0.000000,104.000000) scale(0.100000,-0.100000)"
fill="#000000" stroke="none">
<path d="M511 998 c-15 -5 -177 -272 -333 -548 -11 -19 -47 -80 -79 -136 -33
-55 -59 -103 -59 -107 0 -3 148 -6 330 -6 364 -1 344 -5 299 60 l-18 25 -213
-1 c-117 -1 -216 0 -219 2 -4 1 81 161 188 354 107 193 192 353 189 357 -8 8
-64 8 -85 0z"/>
<path d="M617 903 c-7 -16 -77 -141 -155 -280 -78 -139 -145 -259 -148 -268
-5 -12 3 -15 49 -15 l54 0 108 188 c59 103 110 191 115 195 7 8 26 -18 67 -93
11 -19 89 -159 174 -310 l154 -275 3 79 3 79 -147 271 c-81 149 -155 285 -164
301 -9 17 -31 58 -50 93 -18 34 -36 62 -41 62 -4 0 -14 -12 -22 -27z"/>
<path d="M616 567 l-28 -52 102 -175 c56 -96 107 -180 112 -187 7 -8 -84 -11
-374 -11 -211 0 -393 -1 -405 -1 -20 -1 -23 -6 -23 -38 0 -70 -29 -66 472 -65
249 0 464 1 476 1 l24 1 -26 45 c-24 40 -147 259 -236 420 -18 33 -41 72 -50
87 l-16 27 -28 -52z"/>
</g>
</svg>
